<?xml version="1.0" encoding="UTF-8" standalone="no"?> <svg xmlns="http://www.w3.org/2000/svg" xmlns:xlink="http://www.w3.org/1999/xlink" xmlns:serif="http://www.serif.com/" viewBox="0 0 2677 512" xml:space="preserve" style="fill-rule:evenodd;clip-rule:evenodd;stroke-linejoin:round;stroke-miterlimit:2;"> <g id="Finverity_logo_horizontal_inverted"> <g> <g id="Text"> <path d="M698.152,244.46c0,-1.341 0.433,-2.451 1.297,-3.315c0.866,-0.866 1.877,-1.299 3.029,-1.299l74.997,0c1.155,0 2.113,0.433 2.884,1.299c0.767,0.864 1.156,1.974 1.156,3.315l0,21.058c0,1.153 -0.389,2.213 -1.156,3.177c-0.771,0.96 -1.729,1.438 -2.884,1.438l-74.997,0c-1.152,0 -2.163,-0.478 -3.029,-1.438c-0.864,-0.964 -1.297,-2.024 -1.297,-3.177l0,-21.058Zm-45.864,-83.648c0,-1.733 0.578,-3.176 1.73,-4.329c1.155,-1.155 2.596,-1.73 4.329,-1.73l127.205,0c1.73,0 3.173,0.575 4.326,1.73c1.155,1.153 1.73,2.596 1.73,4.329l0,19.614c0,1.733 -0.575,3.171 -1.73,4.326c-1.153,1.152 -2.596,1.73 -4.326,1.73l-101.533,0l0,165.284c0,1.732 -0.577,3.17 -1.732,4.323c-1.153,1.155 -2.502,1.732 -4.038,1.732l-19.902,0c-1.733,0 -3.174,-0.577 -4.329,-1.732c-1.152,-1.153 -1.73,-2.591 -1.73,-4.323l0,-190.954Z" style="fill:#fff;fill-rule:nonzero;"></path> <path d="M896.412,354.793c-1.441,-1.447 -2.163,-3.218 -2.163,-5.337l0,-186.913c0,-2.116 0.722,-3.896 2.163,-5.337c1.441,-1.441 3.218,-2.163 5.337,-2.163l19.036,0c1.922,0 3.607,0.722 5.048,2.163c1.444,1.441 2.163,3.221 2.163,5.337l0,186.913c0,2.119 -0.719,3.89 -2.163,5.337c-1.441,1.441 -3.126,2.163 -5.048,2.163l-19.036,0c-2.119,0 -3.896,-0.722 -5.337,-2.163" style="fill:#fff;fill-rule:nonzero;"></path> <path d="M1078.4,176.962c0,-2.885 0.672,-4.945 2.019,-6.198c1.344,-1.252 3.074,-1.876 5.192,-1.876c1.344,0 2.691,0.244 4.038,0.721c1.343,0.481 2.31,1.108 2.884,1.875l88.266,89.418l0,-99.511c0,-2.308 0.672,-4.138 2.019,-5.487c1.344,-1.338 3.174,-2.016 5.481,-2.016l19.614,0c1.733,0 3.363,0.772 4.904,2.308c1.538,1.541 2.307,3.27 2.307,5.195l0,189.507c0,1.541 -0.864,3.173 -2.596,4.903c-1.73,1.73 -3.271,2.599 -4.615,2.599l-19.614,0c-1.924,0 -3.657,-0.772 -5.192,-2.31c-1.541,-1.538 -2.308,-3.268 -2.308,-5.192l0,-42.113l-97.784,-96.052c-1.152,-1.155 -2.213,-2.979 -3.173,-5.481c-0.964,-2.496 -1.442,-4.326 -1.442,-5.481l0,-24.809Zm-47.594,-15.571c0,-2.308 0.672,-4.138 2.019,-5.487c1.344,-1.338 3.174,-2.016 5.481,-2.016l19.614,0c1.73,0 3.363,0.772 4.904,2.308c1.535,1.541 2.307,3.27 2.307,5.195l0,189.507c0,1.541 -0.864,3.173 -2.596,4.903c-1.73,1.73 -3.271,2.599 -4.615,2.599l-19.614,0c-1.924,0 -3.654,-0.772 -5.192,-2.31c-1.541,-1.538 -2.308,-3.268 -2.308,-5.192l0,-189.507Z" style="fill:#fff;fill-rule:nonzero;"></path> <path d="M1516.08,156.484c1.441,1.541 2.163,3.274 2.163,5.195c0,1.539 -0.195,2.594 -0.578,3.171l-85.381,187.203c-0.575,1.538 -1.541,2.74 -2.882,3.601c-1.35,0.872 -2.885,1.299 -4.615,1.299l-14.136,0c-1.541,0 -2.985,-0.427 -4.326,-1.299c-1.346,-0.861 -2.307,-2.063 -2.885,-3.601l-85.381,-186.339c-0.385,-0.767 -0.577,-1.919 -0.577,-3.463c0,-2.307 0.766,-4.226 2.307,-5.767c1.539,-1.538 3.463,-2.307 5.77,-2.307l18.751,0c1.729,0 3.265,0.433 4.614,1.299c1.341,0.864 2.308,2.069 2.885,3.604l66.053,139.32l64.901,-139.32c0.577,-1.535 1.538,-2.74 2.885,-3.604c1.344,-0.866 2.785,-1.299 4.326,-1.299l20.769,0c2.113,0 3.895,0.769 5.337,2.307" style="fill:#fff;fill-rule:nonzero;"></path> <path d="M1670.27,268.715c-0.867,-0.961 -1.297,-2.022 -1.297,-3.174l0,-21.063c0,-1.341 0.43,-2.449 1.297,-3.316c0.866,-0.863 1.874,-1.299 3.029,-1.299l75.013,0c1.152,0 2.113,0.436 2.885,1.299c0.767,0.867 1.153,1.975 1.153,3.316l0,21.063c0,1.152 -0.386,2.213 -1.153,3.174c-0.772,0.966 -1.733,1.444 -2.885,1.444l-75.013,0c-1.155,0 -2.163,-0.478 -3.029,-1.444m-47.46,87.129c-1.155,-1.155 -1.73,-2.494 -1.73,-4.038l0,-191.571c0,-1.533 0.575,-2.886 1.73,-4.038c1.152,-1.156 2.497,-1.731 4.038,-1.731l127.521,0c1.733,0 3.216,0.575 4.474,1.731c1.247,1.152 1.875,2.505 1.875,4.038l0,20.195c0,1.545 -0.628,2.886 -1.875,4.041c-1.258,1.153 -2.741,1.73 -4.474,1.73l-101.554,0l0,139.638l101.554,0c1.733,0 3.216,0.575 4.474,1.731c1.247,1.152 1.875,2.502 1.875,4.038l0,20.198c0,1.544 -0.628,2.883 -1.875,4.038c-1.258,1.153 -2.741,1.73 -4.474,1.73l-127.521,0c-1.541,0 -2.886,-0.577 -4.038,-1.73" style="fill:#fff;fill-rule:nonzero;"></path> <path d="M1863.23,164.562c0,-1.538 0.525,-2.885 1.586,-4.04c1.052,-1.155 2.354,-1.921 3.895,-2.307c8.264,-1.344 15.672,-2.452 22.211,-3.318c6.536,-0.864 15.093,-1.297 25.672,-1.297c27.497,0 51.098,5.675 70.812,17.018c19.709,11.348 29.569,31.728 29.569,61.152c0,3.079 -0.1,5.478 -0.289,7.208c0,2.119 -0.578,5.87 -1.733,11.251c-1.152,5.387 -3.993,11.828 -8.507,19.325c-4.524,7.5 -11.107,14.233 -19.762,20.195c10.96,8.074 17.787,18.22 20.484,30.431c2.69,12.212 4.037,22.452 4.037,30.718c0,1.73 -0.678,3.174 -2.022,4.326c-1.346,1.155 -2.885,1.733 -4.617,1.733l-18.456,0c-0.392,0 -1.205,-0.045 -2.452,-0.147c-1.252,-0.092 -2.502,-0.72 -3.751,-1.875c-1.255,-1.152 -1.974,-3.073 -2.166,-5.769c-0.961,-16.727 -3.943,-28.311 -8.941,-34.755c-5,-6.442 -10.382,-9.855 -16.151,-10.241c-10.771,2.308 -20.095,3.46 -27.98,3.46c-3.849,0 -6.201,-0.813 -7.067,-2.452c-0.863,-1.63 -1.299,-3.218 -1.299,-4.756l0,-15.866c0,-1.155 0.436,-2.596 1.299,-4.328c0.866,-1.73 2.738,-2.596 5.623,-2.596c24.809,0 40.674,-5.19 47.597,-15.575c6.919,-10.384 10.381,-19.328 10.381,-26.827c0.192,-1.341 0.292,-3.266 0.292,-5.767c0,-18.073 -5.728,-30.576 -17.162,-37.498c-11.446,-6.923 -25.148,-10.385 -41.108,-10.385c-5.77,0 -11.009,0.336 -15.721,1.011c-4.712,0.674 -7.742,1.105 -9.083,1.296l0,166.722c0,1.733 -0.627,3.224 -1.874,4.471c-1.252,1.255 -2.74,1.877 -4.47,1.877l-22.505,0c-1.727,0 -3.218,-0.622 -4.467,-1.877c-1.253,-1.247 -1.875,-2.738 -1.875,-4.471l0,-186.047Z" style="fill:#fff;fill-rule:nonzero;"></path> <path d="M2121.8,354.793c-1.447,-1.447 -2.166,-3.218 -2.166,-5.337l0,-186.913c0,-2.116 0.719,-3.896 2.166,-5.337c1.441,-1.441 3.218,-2.163 5.337,-2.163l19.033,0c1.922,0 3.61,0.722 5.051,2.163c1.438,1.441 2.163,3.221 2.163,5.337l0,186.913c0,2.119 -0.725,3.89 -2.163,5.337c-1.441,1.441 -3.129,2.163 -5.051,2.163l-19.033,0c-2.119,0 -3.896,-0.722 -5.337,-2.163" style="fill:#fff;fill-rule:nonzero;"></path> <path d="M2315.54,355.371c-0.969,-1.055 -1.444,-2.358 -1.444,-3.896l0,-147.683c0,-1.541 0.475,-2.79 1.444,-3.751c0.961,-0.961 2.208,-1.444 3.751,-1.444l21.633,0c1.341,0 2.546,0.483 3.604,1.444c1.053,0.961 1.588,2.21 1.588,3.751l0,147.683c0,1.538 -0.535,2.841 -1.588,3.896c-1.058,1.058 -2.263,1.582 -3.604,1.582l-21.633,0c-1.543,0 -2.79,-0.524 -3.751,-1.582m-57.981,-170.907c-1.152,-1.152 -1.73,-2.496 -1.73,-4.04l0,-19.611c0,-1.538 0.578,-2.885 1.73,-4.04c1.155,-1.152 2.602,-1.73 4.331,-1.73l138.451,0c1.541,0 2.888,0.578 4.04,1.73c1.155,1.155 1.73,2.502 1.73,4.04l0,19.611c0,1.544 -0.575,2.888 -1.73,4.04c-1.152,1.153 -2.499,1.733 -4.04,1.733l-138.451,0c-1.729,0 -3.176,-0.58 -4.331,-1.733" style="fill:#fff;fill-rule:nonzero;"></path> <path d="M2677.12,161.1l0,0.866c0,1.155 -0.289,2.213 -0.864,3.171l-51.634,85.095c-0.577,1.347 -1.729,2.016 -3.459,2.016c-1.541,0 -2.599,-0.761 -3.174,-2.308l-13.269,-27.402c-0.386,-1.15 -0.575,-2.116 -0.575,-2.879c0,-1.35 0.289,-2.405 0.866,-3.18l31.148,-53.358c0.189,0 0.292,-0.1 0.292,-0.292c2.882,-5.189 8.366,-7.788 16.437,-7.788l15.58,0c3.843,0 6.533,1.444 8.074,4.329c0.384,1.149 0.578,1.73 0.578,1.73m-67.786,110.187c0.767,1.349 1.155,2.985 1.155,4.903l0,73.845c0,2.118 -0.721,3.848 -2.163,5.189c-1.443,1.347 -3.223,2.024 -5.336,2.024l-20.481,0c-1.927,0 -3.604,-0.722 -5.045,-2.168c-1.444,-1.439 -2.165,-3.124 -2.165,-5.045l0,-76.441l-65.765,-108.457c-0.577,-0.958 -0.866,-2.016 -0.866,-3.171c0,-0.578 0.189,-1.447 0.575,-2.596c0.763,-1.344 1.877,-2.402 3.318,-3.174c1.444,-0.766 3.029,-1.155 4.759,-1.155l15.577,0c8.077,0 13.558,2.599 16.443,7.788l0.286,0.292l39.52,65.475l20.188,42.691Z" style="fill:#fff;fill-rule:nonzero;"></path> </g> <g id="Finverity_brandmark_inverted"> <g> <g id="Logo"> <path d="M160.868,137.048c-0.202,0 -0.399,0.054 -0.591,0.054l1.187,0c-0.195,0 -0.392,-0.054 -0.596,-0.054" style="fill:#fff;fill-rule:nonzero;"></path> <path d="M195.615,337.307c-0.357,0.549 -0.69,1.06 -0.991,1.521c-0.314,0.481 -0.594,0.911 -0.838,1.284c0.259,0.456 0.408,0.982 0.408,1.545c0,0.369 -0.067,0.723 -0.185,1.051l7.688,14.721c0.171,-0.028 0.304,-0.048 0.483,-0.048c0.3,0 -0.099,0.046 0.823,0.125l0,-31.722c-2.768,3.594 -4.58,7.146 -6.425,9.982c-0.353,0.543 -0.646,1.055 -0.963,1.541" style="fill:#fff;fill-rule:nonzero;"></path> <path d="M201.164,363.236l-8.907,13.019l7.942,0l1.083,-13.095c-0.04,-0.012 -0.078,0.091 -0.118,0.076" style="fill:#fff;fill-rule:nonzero;"></path> <path d="M209.748,248.565l15.821,10.971c0.572,-0.368 1.249,-0.584 1.978,-0.584c0.436,0 0.853,0.081 1.242,0.222l7.715,-21.224c-0.31,-0.118 -0.597,0.022 -0.861,-0.9l-2.811,0l-21.983,9.055c-0.138,0.796 -0.535,1.93 -1.101,2.46" style="fill:#fff;fill-rule:nonzero;"></path> <path d="M238.057,238.604l-7.941,21.406c0.668,0.662 1.084,1.579 1.084,2.592c0,0.275 -0.034,0.151 -0.091,0.409l17.36,11.836l8.636,0l-17.681,-37.008c-0.417,0.208 -0.879,0.731 -1.367,0.765" style="fill:#fff;fill-rule:nonzero;"></path> <path d="M286.05,274.848l0,-1.004l-3.391,1.004l3.391,0Z" style="fill:#fff;fill-rule:nonzero;"></path> <path d="M180.556,320.747l-11.778,36.648c0.376,0.115 0.722,0.3 1.024,0.538l18.654,-14.508c-0.344,-0.505 -0.546,-1.112 -0.546,-1.768c0,-1.538 1.107,-2.815 2.567,-3.085l-8.82,-18.134c-0.342,0.156 -0.712,0.264 -1.101,0.309" style="fill:#fff;fill-rule:nonzero;"></path> <path d="M182.907,319.497l9.371,19.268c0.144,0.061 0.281,0.135 0.413,0.217c0.679,-1.038 1.322,-2.084 2.007,-3.136c2.866,-4.398 5.537,-8.862 8.305,-12.893l0,-10.943c-6.459,1.779 -12.808,4.075 -19.414,6.189c-0.15,0.483 -0.359,0.923 -0.682,1.298" style="fill:#fff;fill-rule:nonzero;"></path> <path d="M199.078,360.522c0,-0.986 0.455,-1.863 1.166,-2.439l-7.24,-13.969c-0.537,0.426 -1.214,0.681 -1.952,0.681c-0.511,0 -0.994,-0.124 -1.421,-0.342l-18.889,14.693c0.167,0.384 0.26,0.806 0.26,1.252c0,1.205 -0.681,2.012 -1.68,2.538l9.015,13.319l12.076,0l9.477,-13.871c-0.503,-0.558 -0.812,-1.054 -0.812,-1.862" style="fill:#fff;fill-rule:nonzero;"></path> <path d="M227.933,265.84l-3.153,9.008l3.982,0c-0.329,-2.766 -0.614,-6.809 -0.817,-9.205c-0.003,0 -0.007,0.197 -0.012,0.197" style="fill:#fff;fill-rule:nonzero;"></path> <path d="M229.44,265.327c0.278,3.325 0.566,7.677 0.856,9.521l15.51,0l-15.358,-10.623c-0.277,0.361 -0.619,0.864 -1.008,1.102" style="fill:#fff;fill-rule:nonzero;"></path> <path d="M201.739,376.255l1.265,0l0,-11.355l-0.27,-1.042l-0.995,12.397Z" style="fill:#fff;fill-rule:nonzero;"></path> <path d="M204.107,276.653l0,0.2l0.318,-0.2l-0.318,0Z" style="fill:#fff;fill-rule:nonzero;"></path> <path d="M223.893,262.602l0,-0.019l-29.776,-4.122c-0.357,0.926 -1.081,1.672 -1.995,2.056l2.429,21.228c0.3,0.17 0.534,0.38 0.775,0.624l7.677,-4.87l0,-2.652l3.04,0l18.198,-11.09c-0.221,-0.47 -0.348,-0.601 -0.348,-1.155" style="fill:#fff;fill-rule:nonzero;"></path> <path d="M174.594,182.515c-1.103,-0.236 -2.02,-0.975 -2.508,-1.962l-18.658,-0.133c-0.158,0.291 -0.356,0.558 -0.584,0.795l24.261,39.96l-2.511,-38.66Z" style="fill:#fff;fill-rule:nonzero;"></path> <path d="M178.81,180.149c-0.416,1.188 -1.427,2.098 -2.678,2.366l2.657,40.904l15.439,-43.128c-0.559,-0.577 -0.93,-1.334 -1.013,-2.177l-14.405,2.035Z" style="fill:#fff;fill-rule:nonzero;"></path> <path d="M286.05,237.05l-12.87,0l12.87,25.537l0,-25.537Z" style="fill:#fff;fill-rule:nonzero;"></path> <path d="M178.262,230.815c-0.162,0 -0.322,-0.015 -0.479,-0.035l-0.048,0.132l-0.009,-0.141c-0.289,-0.043 -0.567,-0.118 -0.83,-0.224l-12.741,18.784c0.546,0.638 0.878,1.464 0.878,2.367c0,0.407 -0.069,0.798 -0.193,1.163l22.419,3.104c0.284,-0.822 0.853,-1.509 1.588,-1.948l-8.989,-23.574c-0.483,0.235 -1.023,0.372 -1.596,0.372" style="fill:#fff;fill-rule:nonzero;"></path> <path d="M290.503,168.518l-3.079,-17.789c-0.063,0.003 -0.127,0.01 -0.192,0.01c-0.747,0 -1.443,-0.227 -2.024,-0.614l-24.995,25.554c0.083,0.125 0.155,0.526 0.221,0.526l1.935,0l25.488,-4.234c0.083,-1.583 1.173,-3.034 2.646,-3.453" style="fill:#fff;fill-rule:nonzero;"></path> <path d="M167.178,280.419c2.015,0 3.654,1.637 3.654,3.651c0,0.037 -0.005,0.072 -0.006,0.109c4.492,0.025 10.525,0.052 15.116,0.051c1.193,0 2.284,-0.002 3.231,-0.006c0.09,-0.461 0.268,-0.891 0.514,-1.274l-27.813,-27.639c-0.163,0.022 -0.326,0.037 -0.494,0.037c-0.642,0 -1.278,-0.168 -1.803,-0.459l-8.247,6.437l0,10.706l12.808,9.969c0.66,-0.954 1.794,-1.582 3.04,-1.582" style="fill:#fff;fill-rule:nonzero;"></path> <path d="M164.718,360.397c0,-0.578 0.127,-1.118 0.401,-1.584l-13.789,-22.701l0,31.835l13.487,-6.655c-0.084,-0.285 -0.099,-0.584 -0.099,-0.895" style="fill:#fff;fill-rule:nonzero;"></path> <path d="M165.603,362.613l-14.273,7.046l0,6.596l5.953,0c3.791,-6.453 6.898,-11.441 8.34,-13.876c-0.001,-0.002 -0.019,0.236 -0.02,0.234" style="fill:#fff;fill-rule:nonzero;"></path> <path d="M167.465,363.27l-1.348,12.985l10.377,0l-8.778,-13.084c-0.085,-0.004 -0.168,0.11 -0.251,0.099" style="fill:#fff;fill-rule:nonzero;"></path> <path d="M197.264,150.496c0,0.65 -0.173,1.261 -0.473,1.791l26.218,16.453c0.357,-0.528 0.848,-0.854 1.424,-1.137l-9.706,-29.195l-16.215,0l-2.563,9.386c0.803,0.67 1.315,1.578 1.315,2.702" style="fill:#fff;fill-rule:nonzero;"></path> <path d="M226.037,167.129c0.152,0 0.301,0.111 0.448,0.129l10.09,-28.851l-20.231,0l9.585,28.826c0.036,-0.001 0.072,-0.104 0.108,-0.104" style="fill:#fff;fill-rule:nonzero;"></path> <path d="M226.037,174.43c-0.122,0 -0.243,0.127 -0.362,0.115l-0.578,1.66l16.34,0l-12.654,-2.89c-0.671,0.763 -1.651,1.115 -2.746,1.115" style="fill:#fff;fill-rule:nonzero;"></path> <path d="M178.238,176.703c0.414,0.528 0.688,1.169 0.76,1.871l14.411,-2.035c0.503,-1.416 1.854,-2.434 3.441,-2.434c1.189,0 2.244,0.573 2.912,1.455l22.624,-4.83c0.003,-0.183 0.02,-0.363 0.05,-0.539l-26.684,-16.745c-0.603,0.439 -1.342,0.7 -2.142,0.7c-0.104,0 -0.207,-0.007 -0.309,-0.016l-7.737,11.595l-7.326,10.978Z" style="fill:#fff;fill-rule:nonzero;"></path> <path d="M222.688,172.367l-17.357,3.839l18.126,0l0.757,-2.067c-0.674,-0.39 -1.213,-1.054 -1.526,-1.772" style="fill:#fff;fill-rule:nonzero;"></path> <path d="M200.504,177.755c0,0.748 -0.267,1.443 -0.655,2.023l3.154,4.303l0,-7.664l-2.622,0.569c0.053,0.247 0.123,0.505 0.123,0.769" style="fill:#fff;fill-rule:nonzero;"></path> <path d="M210.766,244.49l17.868,-7.44l-19.489,0l-0.817,4.727c1.18,0.364 2.102,1.523 2.438,2.713" style="fill:#fff;fill-rule:nonzero;"></path> <path d="M167.186,357.333l11.81,-36.745c-0.388,-0.129 -0.778,-0.322 -1.097,-0.564c-10.789,3.458 -21.033,6.68 -26.569,8.535l0,4.592l14.905,24.544c0.281,-0.165 0.622,-0.291 0.951,-0.362" style="fill:#fff;fill-rule:nonzero;"></path> <path d="M149.692,329.114c-0.023,0.307 -0.082,0.6 -0.186,0.877l0.901,1.472l0,-2.574c0,0.077 -0.494,0.153 -0.715,0.225" style="fill:#fff;fill-rule:nonzero;"></path> <path d="M192.758,288.571c-0.19,0 -0.374,-0.019 -0.557,-0.047l-9.825,25.718c0.716,0.558 1.177,1.374 1.327,2.309c8.131,-2.601 13.764,-4.65 19.301,-6.143l0,-12.657c-3.691,-3.982 -6.383,-7.505 -8.362,-9.733c-0.56,0.349 -1.178,0.553 -1.884,0.553" style="fill:#fff;fill-rule:nonzero;"></path> <path d="M295.155,172.027c0,1.384 -0.775,2.723 -1.913,3.343l0.142,0.836l3.739,0l0,-5.716l-2.083,0.882c0.039,0.213 0.115,0.431 0.115,0.655" style="fill:#fff;fill-rule:nonzero;"></path> <path d="M288.913,150.326l3.13,18.095c1.018,0.152 1.849,0.723 2.411,1.534l2.668,-1.125l0,-14.182l-7.209,-5.145c-0.297,0.335 -0.599,0.615 -1,0.823" style="fill:#fff;fill-rule:nonzero;"></path> <path d="M290.887,147.088c0,0.373 -0.11,0.733 -0.214,1.073l6.45,4.607l0,-14.36l-7.651,0l-0.835,5.41c1.32,0.551 2.25,1.754 2.25,3.27" style="fill:#fff;fill-rule:nonzero;"></path> <path d="M176.896,223.781l-25.356,-41.704c-0.058,0.024 -0.21,0.042 -0.21,0.063l0,30.896l24.042,11.861c0.39,-0.49 0.935,-0.877 1.524,-1.116" style="fill:#fff;fill-rule:nonzero;"></path> <path d="M157.215,140.784c0,-0.806 0.265,-1.449 0.709,-2.054l-0.298,-0.322l-6.296,0l0,32.743l6.881,-27.834c-0.636,-0.658 -0.996,-1.549 -0.996,-2.533" style="fill:#fff;fill-rule:nonzero;"></path> <path d="M157.726,251.698c0,-0.519 0.078,-1.012 0.275,-1.459l-6.672,-11.001l0,20.139l7.079,-5.521c-0.447,-0.605 -0.682,-1.35 -0.682,-2.158" style="fill:#fff;fill-rule:nonzero;"></path> <path d="M163.524,284.069c0,-0.2 -0.012,-0.395 0.019,-0.586l-12.213,-9.506l0,44.775l13.598,-31.788c-0.871,-0.669 -1.404,-1.716 -1.404,-2.895" style="fill:#fff;fill-rule:nonzero;"></path> <path d="M161.379,248.048c0.557,0 1.082,0.128 1.553,0.351l12.694,-18.714c-0.629,-0.656 -1.017,-1.543 -1.017,-2.521c0,-0.308 0.01,-0.606 0.083,-0.893l-23.362,-11.524l0,21.522l7.661,12.644c0.638,-0.539 1.492,-0.865 2.388,-0.865" style="fill:#fff;fill-rule:nonzero;"></path> <path d="M253.556,177.007c0.002,-0.016 0.006,-0.031 0.009,-0.048l-0.227,0l0.218,0.048Z" style="fill:#fff;fill-rule:nonzero;"></path> <path d="M257.164,174.035c0.717,0 1.387,0.144 1.952,0.503l24.884,-25.339l-54.358,21.024c0.03,0.187 0.049,0.369 0.049,0.565c0,0.347 -0.052,0.811 -0.142,1.129l19.095,4.288l5.251,0c0.596,-1.844 1.834,-2.17 3.269,-2.17" style="fill:#fff;fill-rule:nonzero;"></path> <path d="M193.61,146.845c0.327,0 0.642,0.147 0.944,0.227l2.367,-8.664l-7.474,0l3.532,8.595c0.205,-0.036 0.415,-0.158 0.631,-0.158" style="fill:#fff;fill-rule:nonzero;"></path> <path d="M287.127,143.542l0.791,-5.134l-8.377,0c2.108,0.922 4.168,3.977 5.889,5.657c0.504,-0.287 1.081,-0.506 1.697,-0.523" style="fill:#fff;fill-rule:nonzero;"></path> <path d="M196.85,181.406c-0.459,0 -0.897,-0.089 -1.303,-0.244l-15.361,42.905c0.19,0.117 0.326,0.252 0.491,0.401l22.326,-15.976l0,-21.836l-4.267,-5.804c-0.56,0.349 -1.179,0.554 -1.886,0.554" style="fill:#fff;fill-rule:nonzero;"></path> <path d="M164.522,140.883c0,0.172 -0.017,0.291 -0.04,0.457l25.911,7.454c0.279,-0.518 0.68,-0.874 1.163,-1.204l-3.765,-9.182l-24.347,0c0.662,0 1.078,1.468 1.078,2.475" style="fill:#fff;fill-rule:nonzero;"></path> <path d="M153.854,178.889l17.859,0.127c0,-0.023 -0.003,-0.045 -0.003,-0.068c0,-1.056 0.455,-2.007 1.175,-2.674l-13.105,-32.005c-0.06,-0.019 -0.117,-0.043 -0.176,-0.064l-7.689,31.262c1.158,0.613 1.949,1.828 1.949,3.226c0,0.066 -0.006,0.131 -0.01,0.196" style="fill:#fff;fill-rule:nonzero;"></path> <path d="M189.956,150.496c0,-0.086 0.008,-0.169 0.013,-0.253l-26.017,-7.51c-0.544,0.856 -1.431,1.469 -2.469,1.646l12.736,31.104c0.361,-0.119 0.745,-0.186 1.144,-0.186c0.61,0 1.184,0.152 1.691,0.418l14.724,-22.067c-1.087,-0.633 -1.822,-1.807 -1.822,-3.152" style="fill:#fff;fill-rule:nonzero;"></path> <path d="M288.099,173.484l-16.08,2.722l19.525,0l-0.054,-0.329c-1.542,-0.005 -2.86,-1.037 -3.391,-2.393" style="fill:#fff;fill-rule:nonzero;"></path> <path d="M279.71,274.848l5.764,-3.12c-0.543,-0.638 -0.871,-1.266 -0.871,-2.166c0,-0.371 0.055,-1.058 0.159,-1.396l-43.083,-31.116l-0.711,0l17.834,37.798l20.908,0Z" style="fill:#fff;fill-rule:nonzero;"></path> <path d="M286.05,267.28l0,-1.277l-14.588,-28.953l-27.145,0l41.432,29.87c0.022,-0.025 0.301,0.384 0.301,0.36" style="fill:#fff;fill-rule:nonzero;"></path> <path d="M229.089,168.776l54.539,-21.111c-0.029,-0.188 -0.049,-0.38 -0.049,-0.577c0,-0.802 0.263,-1.444 0.703,-2.047c-2.366,-2.308 -4.745,-5.711 -6.963,-6.633l-39.12,0l-10.264,29.357c0.462,0.281 0.857,0.561 1.154,1.011" style="fill:#fff;fill-rule:nonzero;"></path> <path d="M159.067,376.255l5.507,0l1.145,-11.239c-1.51,2.552 -3.874,6.63 -6.652,11.239" style="fill:#fff;fill-rule:nonzero;"></path> <path d="M181.916,227.164c0,0.513 -0.108,1.001 -0.3,1.445l22.286,15.845c0.505,-1.158 1.593,-2.429 2.891,-2.594l0.793,-4.81l-4.583,0l0,-26.673l-21.43,15.336c0.193,0.445 0.343,0.936 0.343,1.451" style="fill:#fff;fill-rule:nonzero;"></path> <path d="M225.174,264.982l-16.256,9.866l14.244,0l3.212,-9.38c-0.445,-0.15 -0.851,-0.188 -1.2,-0.486" style="fill:#fff;fill-rule:nonzero;"></path> <path d="M196.412,284.921c0,0.752 -0.27,1.452 -0.661,2.033c1.398,1.567 3.562,4.135 7.253,8.432l0,-16.074l-6.86,4.354c0.145,0.392 0.268,0.814 0.268,1.255" style="fill:#fff;fill-rule:nonzero;"></path> <path d="M190.711,253.5c1.946,0 3.537,1.528 3.644,3.446l29.874,4.134c0.071,-0.152 0.15,-0.299 0.241,-0.439l-16.197,-11.233c-0.324,0.094 -0.666,0.148 -1.02,0.148c-1.939,0 -3.526,-1.518 -3.642,-3.427l-22.134,-15.737l8.824,23.132c0.135,-0.015 0.272,-0.024 0.41,-0.024" style="fill:#fff;fill-rule:nonzero;"></path> <path d="M187.074,257.486l-23.121,-3.199c-0.157,0.155 -0.327,0.296 -0.51,0.421l9.387,9.329l17.939,17.827c0.573,-0.373 1.255,-0.593 1.988,-0.593c0.066,0 0.131,0.007 0.196,0.01l-2.344,-20.485c-1.854,-0.052 -3.368,-1.487 -3.535,-3.31" style="fill:#fff;fill-rule:nonzero;"></path> <path d="M176.485,317.122c0,-1.629 1.074,-3.012 2.551,-3.479l-12.214,-25.941c-0.162,-0.017 -0.352,-0.045 -0.506,-0.081l-14.986,35.042l0,4.284c6.459,-2.03 15.784,-5.079 25.511,-8.197c-0.246,-0.491 -0.356,-1.043 -0.356,-1.628" style="fill:#fff;fill-rule:nonzero;"></path> <path d="M149.364,327.464c0.021,0.041 0.05,0.083 0.069,0.124c0.308,-0.1 0.974,-0.205 0.974,-0.311l0,-2.216l-1.043,2.403Z" style="fill:#fff;fill-rule:nonzero;"></path> <path d="M189.204,285.754c-1.082,0.007 -2.396,0.01 -3.947,0.01c-4.809,0 -10.824,-0.029 -14.82,-0.053c-0.418,0.824 -1.138,1.468 -2.015,1.787l12.251,26.018c0.107,0.016 0.212,0.035 0.315,0.06l9.78,-25.597c-0.776,-0.506 -1.347,-1.297 -1.564,-2.225" style="fill:#fff;fill-rule:nonzero;"></path> <path d="M267.257,462.226l3.128,-35.499l-47.026,27.138l-0.167,-0.122l-15.638,-9.021l-30.249,40.7l6.464,3.742l75.64,-18.734c0.019,-4.405 3.488,-7.987 7.848,-8.204" style="fill:#fff;fill-rule:nonzero;"></path> <path d="M160.803,417.754c-2.887,4.454 -5.623,8.667 -8.052,12.399c-0.93,1.43 -1.809,2.78 -2.64,4.056c-0.94,1.442 -1.815,2.785 -2.608,3.999c-0.825,1.265 -1.563,2.397 -2.204,3.379c0.681,1.2 1.074,2.583 1.074,4.062c0,0.972 -0.177,1.901 -0.486,2.769l14.085,26.971l13.817,7.998l30.246,-40.695l-43.232,-24.938Z" style="fill:#fff;fill-rule:nonzero;"></path> <path d="M271.239,463.023c0.637,0.305 1.231,0.684 1.765,1.134l59.55,-67.692c-0.252,-0.239 -0.493,-0.489 -0.717,-0.752l-23.162,8.917l-34.021,19.635l-3.415,38.758Z" style="fill:#fff;fill-rule:nonzero;"></path> <path d="M339.148,399.1c-1.079,0 -2.113,-0.187 -3.083,-0.516l-60.667,68.963c0.277,0.733 0.453,1.514 0.511,2.33l16.128,2.292l65.147,-37.708l-14.962,-35.874c-0.967,0.328 -1.998,0.513 -3.074,0.513" style="fill:#fff;fill-rule:nonzero;"></path> <path d="M396.779,353.626l0.049,0.123l-42.009,24.249l-6.953,7.492c0.565,1.222 0.891,2.575 0.891,4.007c0,0.195 -0.017,0.386 -0.027,0.578l58.18,15.399c0.9,-1.964 2.543,-3.508 4.572,-4.282c-0.004,-0.043 -0.009,-0.08 -0.013,-0.123c-0.019,-0.157 -0.038,-0.319 -0.057,-0.48c-0.065,-0.561 -0.134,-1.141 -0.204,-1.745c-0.006,-0.05 -0.012,-0.102 -0.018,-0.152c-1.809,-15.465 -5.167,-44.324 -7.203,-61.839c-0.402,0.052 -0.83,0.087 -1.246,0.087c-2.248,0 -5.04,-0.789 -5.962,-2.088l0,18.774Z" style="fill:#fff;fill-rule:nonzero;"></path> <path d="M401.632,317.801l-4.854,-34.69l0,36.693c0.923,-1.079 3.034,-1.796 4.854,-2.003" style="fill:#fff;fill-rule:nonzero;"></path> <path d="M129.843,445.649c0,-4.044 2.912,-7.403 6.753,-8.113l-22.811,-46.903l-0.994,-0.574c-0.73,0.279 -1.489,0.498 -2.292,0.59l-15.203,47.304l29.732,17.209l6.251,-4.863c-0.905,-1.325 -1.436,-2.925 -1.436,-4.65" style="fill:#fff;fill-rule:nonzero;"></path> <path d="M141.332,438.043c0.38,0.163 0.741,0.359 1.089,0.571c1.784,-2.73 3.581,-5.481 5.385,-8.249c3.177,-4.877 6.367,-9.784 9.505,-14.625l-37.288,-21.508l21.309,43.811Z" style="fill:#fff;fill-rule:nonzero;"></path> <path d="M138.108,453.907c-1.346,0 -2.614,-0.327 -3.738,-0.899l-5.574,4.336l24.507,14.185l-10.063,-19.413c-1.41,1.119 -3.191,1.791 -5.132,1.791" style="fill:#fff;fill-rule:nonzero;"></path> <path d="M271.787,477.617c0.513,1.823 1.019,3.618 1.519,5.395l13.081,-7.572l-11.182,-1.589c-0.717,1.586 -1.919,2.903 -3.418,3.766" style="fill:#fff;fill-rule:nonzero;"></path> <path d="M345.719,396.486l14.988,35.936l41.5,-24.022l-54.556,-14.439c-0.501,0.948 -1.157,1.798 -1.932,2.525" style="fill:#fff;fill-rule:nonzero;"></path> <path d="M101.08,123.496l-3.631,-55.912l-24.534,14.201l26.061,42.924l2.104,-1.213Z" style="fill:#fff;fill-rule:nonzero;"></path> <path d="M112.117,117.132l26.208,-73.209l-36.976,21.404l3.631,55.92l7.137,-4.115Z" style="fill:#fff;fill-rule:nonzero;"></path> <path d="M396.779,153.158l0,82.518l20.751,-128.413l-8.489,-4.919l-35.485,37.395l23.223,13.419Z" style="fill:#fff;fill-rule:nonzero;"></path> <path d="M20.576,244.783c0.188,0.748 0.249,1.527 0.249,2.334c0,1.585 -0.318,3.076 -1,4.395l30.003,23.355l0,-52.928l-29.252,22.844Z" style="fill:#fff;fill-rule:nonzero;"></path> <path d="M284.948,88.555l15.529,-49.056l-14.768,-8.549l-51.273,28.436l50.512,29.169Z" style="fill:#fff;fill-rule:nonzero;"></path> <path d="M333.524,116.607l-17.084,-67.867l-12.385,-7.169l-15.527,49.052l44.996,25.984Z" style="fill:#fff;fill-rule:nonzero;"></path> <path d="M230.132,5.777c-0.322,0 -0.637,-0.017 -0.951,-0.047l-21.252,56.151l15.544,-8.963l-0.025,0.123l6.912,3.992l51.279,-28.438l-44.578,-25.803c-1.751,1.83 -4.201,2.985 -6.929,2.985" style="fill:#fff;fill-rule:nonzero;"></path> <path d="M200.206,66.335l2.203,-1.271l22.927,-60.58c-1.772,-1.025 -3.189,-2.595 -4.014,-4.484l-11.267,2.405l-43.121,24.959l29.555,39.825c1.139,-0.519 2.394,-0.818 3.717,-0.854" style="fill:#fff;fill-rule:nonzero;"></path> <path d="M103.593,388.748c-22.966,7.361 -44.569,14.314 -59.989,19.285l48.117,27.851l14.674,-45.655c-1.022,-0.337 -1.964,-0.843 -2.802,-1.481" style="fill:#fff;fill-rule:nonzero;"></path> <path d="M260.381,474.346l-71.584,17.727l34.426,19.927l37.501,-21.706l4.309,-12.011c-2.006,-0.677 -3.669,-2.097 -4.652,-3.937" style="fill:#fff;fill-rule:nonzero;"></path> <path d="M400.005,249.217l46.602,-59.959l0,-32.339l-17.221,-42.803l-8.098,-4.687l-22.43,138.955c0.401,0.251 0.786,0.526 1.147,0.833" style="fill:#fff;fill-rule:nonzero;"></path> <path d="M403.403,256.528c0,2.113 -0.696,4.062 -1.858,5.649l45.061,43.726l0,-110.069l-44.08,56.715c0.556,1.214 0.877,2.558 0.877,3.979" style="fill:#fff;fill-rule:nonzero;"></path> <path d="M446.606,124.084l-11.55,-6.686l11.55,28.708l0,-22.022Z" style="fill:#fff;fill-rule:nonzero;"></path> <path d="M95.486,126.721l-26.061,-42.916l-38.333,22.188l54.042,26.698l10.352,-5.97Z" style="fill:#fff;fill-rule:nonzero;"></path> <path d="M1.554,247.117c0,-5.294 4.312,-9.601 9.61,-9.601c3.017,0 5.812,1.399 7.576,3.58l31.089,-24.281l0,-14.325l-47.977,-79.467l-1.851,1.061l0,135.586l4.782,-5.466c-1.928,-1.758 -3.229,-4.28 -3.229,-7.087" style="fill:#fff;fill-rule:nonzero;"></path> <path d="M28.091,398.996l21.737,-50.702l0,-68.309l-32.595,-25.355c-1.641,1.303 -3.764,2.09 -6.019,2.09c-1.01,0 -1.928,-0.159 -2.845,-0.449l-8.369,9.469l0,59.776l21.646,69.73l6.445,3.75Z" style="fill:#fff;fill-rule:nonzero;"></path> <path d="M49.828,153.65l0,-0.492l0.128,-0.124l31.026,-17.92l-54.059,-26.694l-21.647,12.582l44.552,73.68l0,-41.032Z" style="fill:#fff;fill-rule:nonzero;"></path> <path d="M0.001,338.996l0,43.703l16.615,9.618l-16.615,-53.321Z" style="fill:#fff;fill-rule:nonzero;"></path> <path d="M192.28,70.906c0.287,-0.464 0.61,-0.903 0.969,-1.311l-29.831,-40.195l-19.685,11.393l-26.214,73.223l74.761,-43.11Z" style="fill:#fff;fill-rule:nonzero;"></path> <path d="M398.356,264.976l0.607,4.334l6.702,47.892l0.06,-0.069l0.135,1.123c3.782,1.293 6.513,4.871 6.513,9.08c0,3.412 -1.795,6.405 -4.486,8.109c2.145,18.441 5.863,50.384 7.605,65.265l2.053,-1.188c0.13,-0.256 0.256,-0.508 0.392,-0.777c0.27,-0.542 0.548,-1.105 0.837,-1.687c6.388,-12.893 17.682,-35.736 27.832,-58.946l0,-26.585l-48.078,-46.654c-0.059,0.033 -0.113,0.071 -0.172,0.103" style="fill:#fff;fill-rule:nonzero;"></path> <path d="M423.863,395.864l22.743,-13.165l0,-34.997c-2.768,5.535 -5.331,11.481 -8.1,17.395c-6.772,14.465 -11.413,24.183 -14.643,30.767" style="fill:#fff;fill-rule:nonzero;"></path> <path d="M369.988,137.663l35.472,-37.397l-84.148,-48.707l17.084,67.861l31.592,18.243Z" style="fill:#fff;fill-rule:nonzero;"></path> <path d="M99.929,382.64l-48.604,-28.036l-19.813,46.429l7.388,4.276c16.337,-5.268 38.851,-12.519 61.911,-19.912c-0.428,-0.854 -0.723,-1.782 -0.882,-2.757" style="fill:#fff;fill-rule:nonzero;"></path> </g> </g> </g> </g> </g> <g id="Finverity_logo_horizontal_colour"> <g> <g id="Text1" serif:id="Text"> <path d="M698.152,244.46c0,-1.341 0.433,-2.451 1.297,-3.315c0.866,-0.866 1.877,-1.299 3.029,-1.299l74.997,0c1.155,0 2.113,0.433 2.884,1.299c0.767,0.864 1.156,1.974 1.156,3.315l0,21.058c0,1.153 -0.389,2.213 -1.156,3.177c-0.771,0.96 -1.729,1.438 -2.884,1.438l-74.997,0c-1.152,0 -2.163,-0.478 -3.029,-1.438c-0.864,-0.964 -1.297,-2.024 -1.297,-3.177l0,-21.058Zm-45.864,-83.648c0,-1.733 0.578,-3.176 1.73,-4.329c1.155,-1.155 2.596,-1.73 4.329,-1.73l127.205,0c1.73,0 3.173,0.575 4.326,1.73c1.155,1.153 1.73,2.596 1.73,4.329l0,19.614c0,1.733 -0.575,3.171 -1.73,4.326c-1.153,1.152 -2.596,1.73 -4.326,1.73l-101.533,0l0,165.284c0,1.732 -0.577,3.17 -1.732,4.323c-1.153,1.155 -2.502,1.732 -4.038,1.732l-19.902,0c-1.733,0 -3.174,-0.577 -4.329,-1.732c-1.152,-1.153 -1.73,-2.591 -1.73,-4.323l0,-190.954Z" style="fill:#003d71;fill-rule:nonzero;"></path> <path d="M896.412,354.793c-1.441,-1.447 -2.163,-3.218 -2.163,-5.337l0,-186.913c0,-2.116 0.722,-3.896 2.163,-5.337c1.441,-1.441 3.218,-2.163 5.337,-2.163l19.036,0c1.922,0 3.607,0.722 5.048,2.163c1.444,1.441 2.163,3.221 2.163,5.337l0,186.913c0,2.119 -0.719,3.89 -2.163,5.337c-1.441,1.441 -3.126,2.163 -5.048,2.163l-19.036,0c-2.119,0 -3.896,-0.722 -5.337,-2.163" style="fill:#003d71;fill-rule:nonzero;"></path> <path d="M1078.4,176.962c0,-2.885 0.672,-4.945 2.019,-6.198c1.344,-1.252 3.074,-1.876 5.192,-1.876c1.344,0 2.691,0.244 4.038,0.721c1.343,0.481 2.31,1.108 2.884,1.875l88.266,89.418l0,-99.511c0,-2.308 0.672,-4.138 2.019,-5.487c1.344,-1.338 3.174,-2.016 5.481,-2.016l19.614,0c1.733,0 3.363,0.772 4.904,2.308c1.538,1.541 2.307,3.27 2.307,5.195l0,189.507c0,1.541 -0.864,3.173 -2.596,4.903c-1.73,1.73 -3.271,2.599 -4.615,2.599l-19.614,0c-1.924,0 -3.657,-0.772 -5.192,-2.31c-1.541,-1.538 -2.308,-3.268 -2.308,-5.192l0,-42.113l-97.784,-96.052c-1.152,-1.155 -2.213,-2.979 -3.173,-5.481c-0.964,-2.496 -1.442,-4.326 -1.442,-5.481l0,-24.809Zm-47.594,-15.571c0,-2.308 0.672,-4.138 2.019,-5.487c1.344,-1.338 3.174,-2.016 5.481,-2.016l19.614,0c1.73,0 3.363,0.772 4.904,2.308c1.535,1.541 2.307,3.27 2.307,5.195l0,189.507c0,1.541 -0.864,3.173 -2.596,4.903c-1.73,1.73 -3.271,2.599 -4.615,2.599l-19.614,0c-1.924,0 -3.654,-0.772 -5.192,-2.31c-1.541,-1.538 -2.308,-3.268 -2.308,-5.192l0,-189.507Z" style="fill:#003d71;fill-rule:nonzero;"></path> <path d="M1516.08,156.484c1.441,1.541 2.163,3.274 2.163,5.195c0,1.539 -0.195,2.594 -0.578,3.171l-85.381,187.203c-0.575,1.538 -1.541,2.74 -2.882,3.601c-1.35,0.872 -2.885,1.299 -4.615,1.299l-14.136,0c-1.541,0 -2.985,-0.427 -4.326,-1.299c-1.346,-0.861 -2.307,-2.063 -2.885,-3.601l-85.381,-186.339c-0.385,-0.767 -0.577,-1.919 -0.577,-3.463c0,-2.307 0.766,-4.226 2.307,-5.767c1.539,-1.538 3.463,-2.307 5.77,-2.307l18.751,0c1.729,0 3.265,0.433 4.614,1.299c1.341,0.864 2.308,2.069 2.885,3.604l66.053,139.32l64.901,-139.32c0.577,-1.535 1.538,-2.74 2.885,-3.604c1.344,-0.866 2.785,-1.299 4.326,-1.299l20.769,0c2.113,0 3.895,0.769 5.337,2.307" style="fill:#003d71;fill-rule:nonzero;"></path> <path d="M1670.27,268.715c-0.867,-0.961 -1.297,-2.022 -1.297,-3.174l0,-21.063c0,-1.341 0.43,-2.449 1.297,-3.316c0.866,-0.863 1.874,-1.299 3.029,-1.299l75.013,0c1.152,0 2.113,0.436 2.885,1.299c0.767,0.867 1.153,1.975 1.153,3.316l0,21.063c0,1.152 -0.386,2.213 -1.153,3.174c-0.772,0.966 -1.733,1.444 -2.885,1.444l-75.013,0c-1.155,0 -2.163,-0.478 -3.029,-1.444m-47.46,87.129c-1.155,-1.155 -1.73,-2.494 -1.73,-4.038l0,-191.571c0,-1.533 0.575,-2.886 1.73,-4.038c1.152,-1.156 2.497,-1.731 4.038,-1.731l127.521,0c1.733,0 3.216,0.575 4.474,1.731c1.247,1.152 1.875,2.505 1.875,4.038l0,20.195c0,1.545 -0.628,2.886 -1.875,4.041c-1.258,1.153 -2.741,1.73 -4.474,1.73l-101.554,0l0,139.638l101.554,0c1.733,0 3.216,0.575 4.474,1.731c1.247,1.152 1.875,2.502 1.875,4.038l0,20.198c0,1.544 -0.628,2.883 -1.875,4.038c-1.258,1.153 -2.741,1.73 -4.474,1.73l-127.521,0c-1.541,0 -2.886,-0.577 -4.038,-1.73" style="fill:#003d71;fill-rule:nonzero;"></path> <path d="M1863.23,164.562c0,-1.538 0.525,-2.885 1.586,-4.04c1.052,-1.155 2.354,-1.921 3.895,-2.307c8.264,-1.344 15.672,-2.452 22.211,-3.318c6.536,-0.864 15.093,-1.297 25.672,-1.297c27.497,0 51.098,5.675 70.812,17.018c19.709,11.348 29.569,31.728 29.569,61.152c0,3.079 -0.1,5.478 -0.289,7.208c0,2.119 -0.578,5.87 -1.733,11.251c-1.152,5.387 -3.993,11.828 -8.507,19.325c-4.524,7.5 -11.107,14.233 -19.762,20.195c10.96,8.074 17.787,18.22 20.484,30.431c2.69,12.212 4.037,22.452 4.037,30.718c0,1.73 -0.678,3.174 -2.022,4.326c-1.346,1.155 -2.885,1.733 -4.617,1.733l-18.456,0c-0.392,0 -1.205,-0.045 -2.452,-0.147c-1.252,-0.092 -2.502,-0.72 -3.751,-1.875c-1.255,-1.152 -1.974,-3.073 -2.166,-5.769c-0.961,-16.727 -3.943,-28.311 -8.941,-34.755c-5,-6.442 -10.382,-9.855 -16.151,-10.241c-10.771,2.308 -20.095,3.46 -27.98,3.46c-3.849,0 -6.201,-0.813 -7.067,-2.452c-0.863,-1.63 -1.299,-3.218 -1.299,-4.756l0,-15.866c0,-1.155 0.436,-2.596 1.299,-4.328c0.866,-1.73 2.738,-2.596 5.623,-2.596c24.809,0 40.674,-5.19 47.597,-15.575c6.919,-10.384 10.381,-19.328 10.381,-26.827c0.192,-1.341 0.292,-3.266 0.292,-5.767c0,-18.073 -5.728,-30.576 -17.162,-37.498c-11.446,-6.923 -25.148,-10.385 -41.108,-10.385c-5.77,0 -11.009,0.336 -15.721,1.011c-4.712,0.674 -7.742,1.105 -9.083,1.296l0,166.722c0,1.733 -0.627,3.224 -1.874,4.471c-1.252,1.255 -2.74,1.877 -4.47,1.877l-22.505,0c-1.727,0 -3.218,-0.622 -4.467,-1.877c-1.253,-1.247 -1.875,-2.738 -1.875,-4.471l0,-186.047Z" style="fill:#003d71;fill-rule:nonzero;"></path> <path d="M2121.8,354.793c-1.447,-1.447 -2.166,-3.218 -2.166,-5.337l0,-186.913c0,-2.116 0.719,-3.896 2.166,-5.337c1.441,-1.441 3.218,-2.163 5.337,-2.163l19.033,0c1.922,0 3.61,0.722 5.051,2.163c1.438,1.441 2.163,3.221 2.163,5.337l0,186.913c0,2.119 -0.725,3.89 -2.163,5.337c-1.441,1.441 -3.129,2.163 -5.051,2.163l-19.033,0c-2.119,0 -3.896,-0.722 -5.337,-2.163" style="fill:#003d71;fill-rule:nonzero;"></path> <path d="M2315.54,355.371c-0.969,-1.055 -1.444,-2.358 -1.444,-3.896l0,-147.683c0,-1.541 0.475,-2.79 1.444,-3.751c0.961,-0.961 2.208,-1.444 3.751,-1.444l21.633,0c1.341,0 2.546,0.483 3.604,1.444c1.053,0.961 1.588,2.21 1.588,3.751l0,147.683c0,1.538 -0.535,2.841 -1.588,3.896c-1.058,1.058 -2.263,1.582 -3.604,1.582l-21.633,0c-1.543,0 -2.79,-0.524 -3.751,-1.582m-57.981,-170.907c-1.152,-1.152 -1.73,-2.496 -1.73,-4.04l0,-19.611c0,-1.538 0.578,-2.885 1.73,-4.04c1.155,-1.152 2.602,-1.73 4.331,-1.73l138.451,0c1.541,0 2.888,0.578 4.04,1.73c1.155,1.155 1.73,2.502 1.73,4.04l0,19.611c0,1.544 -0.575,2.888 -1.73,4.04c-1.152,1.153 -2.499,1.733 -4.04,1.733l-138.451,0c-1.729,0 -3.176,-0.58 -4.331,-1.733" style="fill:#003d71;fill-rule:nonzero;"></path> <path d="M2677.12,161.1l0,0.866c0,1.155 -0.289,2.213 -0.864,3.171l-51.634,85.095c-0.577,1.347 -1.729,2.016 -3.459,2.016c-1.541,0 -2.599,-0.761 -3.174,-2.308l-13.269,-27.402c-0.386,-1.15 -0.575,-2.116 -0.575,-2.879c0,-1.35 0.289,-2.405 0.866,-3.18l31.148,-53.358c0.189,0 0.292,-0.1 0.292,-0.292c2.882,-5.189 8.366,-7.788 16.437,-7.788l15.58,0c3.843,0 6.533,1.444 8.074,4.329c0.384,1.149 0.578,1.73 0.578,1.73m-67.786,110.187c0.767,1.349 1.155,2.985 1.155,4.903l0,73.845c0,2.118 -0.721,3.848 -2.163,5.189c-1.443,1.347 -3.223,2.024 -5.336,2.024l-20.481,0c-1.927,0 -3.604,-0.722 -5.045,-2.168c-1.444,-1.439 -2.165,-3.124 -2.165,-5.045l0,-76.441l-65.765,-108.457c-0.577,-0.958 -0.866,-2.016 -0.866,-3.171c0,-0.578 0.189,-1.447 0.575,-2.596c0.763,-1.344 1.877,-2.402 3.318,-3.174c1.444,-0.766 3.029,-1.155 4.759,-1.155l15.577,0c8.077,0 13.558,2.599 16.443,7.788l0.286,0.292l39.52,65.475l20.188,42.691Z" style="fill:#003d71;fill-rule:nonzero;"></path> </g> <g id="Finverity_brandmark_colour"> <g> <g id="Logo1" serif:id="Logo"> <path d="M160.868,137.048c-0.202,0 -0.399,0.054 -0.591,0.054l1.187,0c-0.195,0 -0.392,-0.054 -0.596,-0.054" style="fill:#0092cf;fill-rule:nonzero;"></path> <path d="M195.615,337.307c-0.357,0.549 -0.69,1.06 -0.991,1.521c-0.314,0.481 -0.594,0.911 -0.838,1.284c0.259,0.456 0.408,0.982 0.408,1.545c0,0.369 -0.067,0.723 -0.185,1.051l7.688,14.721c0.171,-0.028 0.304,-0.048 0.483,-0.048c0.3,0 -0.099,0.046 0.823,0.125l0,-31.722c-2.768,3.594 -4.58,7.146 -6.425,9.982c-0.353,0.543 -0.646,1.055 -0.963,1.541" style="fill:#0092cf;fill-rule:nonzero;"></path> <path d="M201.164,363.236l-8.907,13.019l7.942,0l1.083,-13.095c-0.04,-0.012 -0.078,0.091 -0.118,0.076" style="fill:#0092cf;fill-rule:nonzero;"></path> <path d="M209.748,248.565l15.821,10.971c0.572,-0.368 1.249,-0.584 1.978,-0.584c0.436,0 0.853,0.081 1.242,0.222l7.715,-21.224c-0.31,-0.118 -0.597,0.022 -0.861,-0.9l-2.811,0l-21.983,9.055c-0.138,0.796 -0.535,1.93 -1.101,2.46" style="fill:#0092cf;fill-rule:nonzero;"></path> <path d="M238.057,238.604l-7.941,21.406c0.668,0.662 1.084,1.579 1.084,2.592c0,0.275 -0.034,0.151 -0.091,0.409l17.36,11.836l8.636,0l-17.681,-37.008c-0.417,0.208 -0.879,0.731 -1.367,0.765" style="fill:#0092cf;fill-rule:nonzero;"></path> <path d="M286.05,274.848l0,-1.004l-3.391,1.004l3.391,0Z" style="fill:#0092cf;fill-rule:nonzero;"></path> <path d="M180.556,320.747l-11.778,36.648c0.376,0.115 0.722,0.3 1.024,0.538l18.654,-14.508c-0.344,-0.505 -0.546,-1.112 -0.546,-1.768c0,-1.538 1.107,-2.815 2.567,-3.085l-8.82,-18.134c-0.342,0.156 -0.712,0.264 -1.101,0.309" style="fill:#0092cf;fill-rule:nonzero;"></path> <path d="M182.907,319.497l9.371,19.268c0.144,0.061 0.281,0.135 0.413,0.217c0.679,-1.038 1.322,-2.084 2.007,-3.136c2.866,-4.398 5.537,-8.862 8.305,-12.893l0,-10.943c-6.459,1.779 -12.808,4.075 -19.414,6.189c-0.15,0.483 -0.359,0.923 -0.682,1.298" style="fill:#0092cf;fill-rule:nonzero;"></path> <path d="M199.078,360.522c0,-0.986 0.455,-1.863 1.166,-2.439l-7.24,-13.969c-0.537,0.426 -1.214,0.681 -1.952,0.681c-0.511,0 -0.994,-0.124 -1.421,-0.342l-18.889,14.693c0.167,0.384 0.26,0.806 0.26,1.252c0,1.205 -0.681,2.012 -1.68,2.538l9.015,13.319l12.076,0l9.477,-13.871c-0.503,-0.558 -0.812,-1.054 -0.812,-1.862" style="fill:#0092cf;fill-rule:nonzero;"></path> <path d="M227.933,265.84l-3.153,9.008l3.982,0c-0.329,-2.766 -0.614,-6.809 -0.817,-9.205c-0.003,0 -0.007,0.197 -0.012,0.197" style="fill:#0092cf;fill-rule:nonzero;"></path> <path d="M229.44,265.327c0.278,3.325 0.566,7.677 0.856,9.521l15.51,0l-15.358,-10.623c-0.277,0.361 -0.619,0.864 -1.008,1.102" style="fill:#0092cf;fill-rule:nonzero;"></path> <path d="M201.739,376.255l1.265,0l0,-11.355l-0.27,-1.042l-0.995,12.397Z" style="fill:#0092cf;fill-rule:nonzero;"></path> <path d="M204.107,276.653l0,0.2l0.318,-0.2l-0.318,0Z" style="fill:#0092cf;fill-rule:nonzero;"></path> <path d="M223.893,262.602l0,-0.019l-29.776,-4.122c-0.357,0.926 -1.081,1.672 -1.995,2.056l2.429,21.228c0.3,0.17 0.534,0.38 0.775,0.624l7.677,-4.87l0,-2.652l3.04,0l18.198,-11.09c-0.221,-0.47 -0.348,-0.601 -0.348,-1.155" style="fill:#0092cf;fill-rule:nonzero;"></path> <path d="M174.594,182.515c-1.103,-0.236 -2.02,-0.975 -2.508,-1.962l-18.658,-0.133c-0.158,0.291 -0.356,0.558 -0.584,0.795l24.261,39.96l-2.511,-38.66Z" style="fill:#0092cf;fill-rule:nonzero;"></path> <path d="M178.81,180.149c-0.416,1.188 -1.427,2.098 -2.678,2.366l2.657,40.904l15.439,-43.128c-0.559,-0.577 -0.93,-1.334 -1.013,-2.177l-14.405,2.035Z" style="fill:#0092cf;fill-rule:nonzero;"></path> <path d="M286.05,237.05l-12.87,0l12.87,25.537l0,-25.537Z" style="fill:#0092cf;fill-rule:nonzero;"></path> <path d="M178.262,230.815c-0.162,0 -0.322,-0.015 -0.479,-0.035l-0.048,0.132l-0.009,-0.141c-0.289,-0.043 -0.567,-0.118 -0.83,-0.224l-12.741,18.784c0.546,0.638 0.878,1.464 0.878,2.367c0,0.407 -0.069,0.798 -0.193,1.163l22.419,3.104c0.284,-0.822 0.853,-1.509 1.588,-1.948l-8.989,-23.574c-0.483,0.235 -1.023,0.372 -1.596,0.372" style="fill:#0092cf;fill-rule:nonzero;"></path> <path d="M290.503,168.518l-3.079,-17.789c-0.063,0.003 -0.127,0.01 -0.192,0.01c-0.747,0 -1.443,-0.227 -2.024,-0.614l-24.995,25.554c0.083,0.125 0.155,0.526 0.221,0.526l1.935,0l25.488,-4.234c0.083,-1.583 1.173,-3.034 2.646,-3.453" style="fill:#0092cf;fill-rule:nonzero;"></path> <path d="M167.178,280.419c2.015,0 3.654,1.637 3.654,3.651c0,0.037 -0.005,0.072 -0.006,0.109c4.492,0.025 10.525,0.052 15.116,0.051c1.193,0 2.284,-0.002 3.231,-0.006c0.09,-0.461 0.268,-0.891 0.514,-1.274l-27.813,-27.639c-0.163,0.022 -0.326,0.037 -0.494,0.037c-0.642,0 -1.278,-0.168 -1.803,-0.459l-8.247,6.437l0,10.706l12.808,9.969c0.66,-0.954 1.794,-1.582 3.04,-1.582" style="fill:#0092cf;fill-rule:nonzero;"></path> <path d="M164.718,360.397c0,-0.578 0.127,-1.118 0.401,-1.584l-13.789,-22.701l0,31.835l13.487,-6.655c-0.084,-0.285 -0.099,-0.584 -0.099,-0.895" style="fill:#0092cf;fill-rule:nonzero;"></path> <path d="M165.603,362.613l-14.273,7.046l0,6.596l5.953,0c3.791,-6.453 6.898,-11.441 8.34,-13.876c-0.001,-0.002 -0.019,0.236 -0.02,0.234" style="fill:#0092cf;fill-rule:nonzero;"></path> <path d="M167.465,363.27l-1.348,12.985l10.377,0l-8.778,-13.084c-0.085,-0.004 -0.168,0.11 -0.251,0.099" style="fill:#0092cf;fill-rule:nonzero;"></path> <path d="M197.264,150.496c0,0.65 -0.173,1.261 -0.473,1.791l26.218,16.453c0.357,-0.528 0.848,-0.854 1.424,-1.137l-9.706,-29.195l-16.215,0l-2.563,9.386c0.803,0.67 1.315,1.578 1.315,2.702" style="fill:#0092cf;fill-rule:nonzero;"></path> <path d="M226.037,167.129c0.152,0 0.301,0.111 0.448,0.129l10.09,-28.851l-20.231,0l9.585,28.826c0.036,-0.001 0.072,-0.104 0.108,-0.104" style="fill:#0092cf;fill-rule:nonzero;"></path> <path d="M226.037,174.43c-0.122,0 -0.243,0.127 -0.362,0.115l-0.578,1.66l16.34,0l-12.654,-2.89c-0.671,0.763 -1.651,1.115 -2.746,1.115" style="fill:#0092cf;fill-rule:nonzero;"></path> <path d="M178.238,176.703c0.414,0.528 0.688,1.169 0.76,1.871l14.411,-2.035c0.503,-1.416 1.854,-2.434 3.441,-2.434c1.189,0 2.244,0.573 2.912,1.455l22.624,-4.83c0.003,-0.183 0.02,-0.363 0.05,-0.539l-26.684,-16.745c-0.603,0.439 -1.342,0.7 -2.142,0.7c-0.104,0 -0.207,-0.007 -0.309,-0.016l-7.737,11.595l-7.326,10.978Z" style="fill:#0092cf;fill-rule:nonzero;"></path> <path d="M222.688,172.367l-17.357,3.839l18.126,0l0.757,-2.067c-0.674,-0.39 -1.213,-1.054 -1.526,-1.772" style="fill:#0092cf;fill-rule:nonzero;"></path> <path d="M200.504,177.755c0,0.748 -0.267,1.443 -0.655,2.023l3.154,4.303l0,-7.664l-2.622,0.569c0.053,0.247 0.123,0.505 0.123,0.769" style="fill:#0092cf;fill-rule:nonzero;"></path> <path d="M210.766,244.49l17.868,-7.44l-19.489,0l-0.817,4.727c1.18,0.364 2.102,1.523 2.438,2.713" style="fill:#0092cf;fill-rule:nonzero;"></path> <path d="M167.186,357.333l11.81,-36.745c-0.388,-0.129 -0.778,-0.322 -1.097,-0.564c-10.789,3.458 -21.033,6.68 -26.569,8.535l0,4.592l14.905,24.544c0.281,-0.165 0.622,-0.291 0.951,-0.362" style="fill:#0092cf;fill-rule:nonzero;"></path> <path d="M149.692,329.114c-0.023,0.307 -0.082,0.6 -0.186,0.877l0.901,1.472l0,-2.574c0,0.077 -0.494,0.153 -0.715,0.225" style="fill:#0092cf;fill-rule:nonzero;"></path> <path d="M192.758,288.571c-0.19,0 -0.374,-0.019 -0.557,-0.047l-9.825,25.718c0.716,0.558 1.177,1.374 1.327,2.309c8.131,-2.601 13.764,-4.65 19.301,-6.143l0,-12.657c-3.691,-3.982 -6.383,-7.505 -8.362,-9.733c-0.56,0.349 -1.178,0.553 -1.884,0.553" style="fill:#0092cf;fill-rule:nonzero;"></path> <path d="M295.155,172.027c0,1.384 -0.775,2.723 -1.913,3.343l0.142,0.836l3.739,0l0,-5.716l-2.083,0.882c0.039,0.213 0.115,0.431 0.115,0.655" style="fill:#0092cf;fill-rule:nonzero;"></path> <path d="M288.913,150.326l3.13,18.095c1.018,0.152 1.849,0.723 2.411,1.534l2.668,-1.125l0,-14.182l-7.209,-5.145c-0.297,0.335 -0.599,0.615 -1,0.823" style="fill:#0092cf;fill-rule:nonzero;"></path> <path d="M290.887,147.088c0,0.373 -0.11,0.733 -0.214,1.073l6.45,4.607l0,-14.36l-7.651,0l-0.835,5.41c1.32,0.551 2.25,1.754 2.25,3.27" style="fill:#0092cf;fill-rule:nonzero;"></path> <path d="M176.896,223.781l-25.356,-41.704c-0.058,0.024 -0.21,0.042 -0.21,0.063l0,30.896l24.042,11.861c0.39,-0.49 0.935,-0.877 1.524,-1.116" style="fill:#0092cf;fill-rule:nonzero;"></path> <path d="M157.215,140.784c0,-0.806 0.265,-1.449 0.709,-2.054l-0.298,-0.322l-6.296,0l0,32.743l6.881,-27.834c-0.636,-0.658 -0.996,-1.549 -0.996,-2.533" style="fill:#0092cf;fill-rule:nonzero;"></path> <path d="M157.726,251.698c0,-0.519 0.078,-1.012 0.275,-1.459l-6.672,-11.001l0,20.139l7.079,-5.521c-0.447,-0.605 -0.682,-1.35 -0.682,-2.158" style="fill:#0092cf;fill-rule:nonzero;"></path> <path d="M163.524,284.069c0,-0.2 -0.012,-0.395 0.019,-0.586l-12.213,-9.506l0,44.775l13.598,-31.788c-0.871,-0.669 -1.404,-1.716 -1.404,-2.895" style="fill:#0092cf;fill-rule:nonzero;"></path> <path d="M161.379,248.048c0.557,0 1.082,0.128 1.553,0.351l12.694,-18.714c-0.629,-0.656 -1.017,-1.543 -1.017,-2.521c0,-0.308 0.01,-0.606 0.083,-0.893l-23.362,-11.524l0,21.522l7.661,12.644c0.638,-0.539 1.492,-0.865 2.388,-0.865" style="fill:#0092cf;fill-rule:nonzero;"></path> <path d="M253.556,177.007c0.002,-0.016 0.006,-0.031 0.009,-0.048l-0.227,0l0.218,0.048Z" style="fill:#0092cf;fill-rule:nonzero;"></path> <path d="M257.164,174.035c0.717,0 1.387,0.144 1.952,0.503l24.884,-25.339l-54.358,21.024c0.03,0.187 0.049,0.369 0.049,0.565c0,0.347 -0.052,0.811 -0.142,1.129l19.095,4.288l5.251,0c0.596,-1.844 1.834,-2.17 3.269,-2.17" style="fill:#0092cf;fill-rule:nonzero;"></path> <path d="M193.61,146.845c0.327,0 0.642,0.147 0.944,0.227l2.367,-8.664l-7.474,0l3.532,8.595c0.205,-0.036 0.415,-0.158 0.631,-0.158" style="fill:#0092cf;fill-rule:nonzero;"></path> <path d="M287.127,143.542l0.791,-5.134l-8.377,0c2.108,0.922 4.168,3.977 5.889,5.657c0.504,-0.287 1.081,-0.506 1.697,-0.523" style="fill:#0092cf;fill-rule:nonzero;"></path> <path d="M196.85,181.406c-0.459,0 -0.897,-0.089 -1.303,-0.244l-15.361,42.905c0.19,0.117 0.326,0.252 0.491,0.401l22.326,-15.976l0,-21.836l-4.267,-5.804c-0.56,0.349 -1.179,0.554 -1.886,0.554" style="fill:#0092cf;fill-rule:nonzero;"></path> <path d="M164.522,140.883c0,0.172 -0.017,0.291 -0.04,0.457l25.911,7.454c0.279,-0.518 0.68,-0.874 1.163,-1.204l-3.765,-9.182l-24.347,0c0.662,0 1.078,1.468 1.078,2.475" style="fill:#0092cf;fill-rule:nonzero;"></path> <path d="M153.854,178.889l17.859,0.127c0,-0.023 -0.003,-0.045 -0.003,-0.068c0,-1.056 0.455,-2.007 1.175,-2.674l-13.105,-32.005c-0.06,-0.019 -0.117,-0.043 -0.176,-0.064l-7.689,31.262c1.158,0.613 1.949,1.828 1.949,3.226c0,0.066 -0.006,0.131 -0.01,0.196" style="fill:#0092cf;fill-rule:nonzero;"></path> <path d="M189.956,150.496c0,-0.086 0.008,-0.169 0.013,-0.253l-26.017,-7.51c-0.544,0.856 -1.431,1.469 -2.469,1.646l12.736,31.104c0.361,-0.119 0.745,-0.186 1.144,-0.186c0.61,0 1.184,0.152 1.691,0.418l14.724,-22.067c-1.087,-0.633 -1.822,-1.807 -1.822,-3.152" style="fill:#0092cf;fill-rule:nonzero;"></path> <path d="M288.099,173.484l-16.08,2.722l19.525,0l-0.054,-0.329c-1.542,-0.005 -2.86,-1.037 -3.391,-2.393" style="fill:#0092cf;fill-rule:nonzero;"></path> <path d="M279.71,274.848l5.764,-3.12c-0.543,-0.638 -0.871,-1.266 -0.871,-2.166c0,-0.371 0.055,-1.058 0.159,-1.396l-43.083,-31.116l-0.711,0l17.834,37.798l20.908,0Z" style="fill:#0092cf;fill-rule:nonzero;"></path> <path d="M286.05,267.28l0,-1.277l-14.588,-28.953l-27.145,0l41.432,29.87c0.022,-0.025 0.301,0.384 0.301,0.36" style="fill:#0092cf;fill-rule:nonzero;"></path> <path d="M229.089,168.776l54.539,-21.111c-0.029,-0.188 -0.049,-0.38 -0.049,-0.577c0,-0.802 0.263,-1.444 0.703,-2.047c-2.366,-2.308 -4.745,-5.711 -6.963,-6.633l-39.12,0l-10.264,29.357c0.462,0.281 0.857,0.561 1.154,1.011" style="fill:#0092cf;fill-rule:nonzero;"></path> <path d="M159.067,376.255l5.507,0l1.145,-11.239c-1.51,2.552 -3.874,6.63 -6.652,11.239" style="fill:#0092cf;fill-rule:nonzero;"></path> <path d="M181.916,227.164c0,0.513 -0.108,1.001 -0.3,1.445l22.286,15.845c0.505,-1.158 1.593,-2.429 2.891,-2.594l0.793,-4.81l-4.583,0l0,-26.673l-21.43,15.336c0.193,0.445 0.343,0.936 0.343,1.451" style="fill:#0092cf;fill-rule:nonzero;"></path> <path d="M225.174,264.982l-16.256,9.866l14.244,0l3.212,-9.38c-0.445,-0.15 -0.851,-0.188 -1.2,-0.486" style="fill:#0092cf;fill-rule:nonzero;"></path> <path d="M196.412,284.921c0,0.752 -0.27,1.452 -0.661,2.033c1.398,1.567 3.562,4.135 7.253,8.432l0,-16.074l-6.86,4.354c0.145,0.392 0.268,0.814 0.268,1.255" style="fill:#0092cf;fill-rule:nonzero;"></path> <path d="M190.711,253.5c1.946,0 3.537,1.528 3.644,3.446l29.874,4.134c0.071,-0.152 0.15,-0.299 0.241,-0.439l-16.197,-11.233c-0.324,0.094 -0.666,0.148 -1.02,0.148c-1.939,0 -3.526,-1.518 -3.642,-3.427l-22.134,-15.737l8.824,23.132c0.135,-0.015 0.272,-0.024 0.41,-0.024" style="fill:#0092cf;fill-rule:nonzero;"></path> <path d="M187.074,257.486l-23.121,-3.199c-0.157,0.155 -0.327,0.296 -0.51,0.421l9.387,9.329l17.939,17.827c0.573,-0.373 1.255,-0.593 1.988,-0.593c0.066,0 0.131,0.007 0.196,0.01l-2.344,-20.485c-1.854,-0.052 -3.368,-1.487 -3.535,-3.31" style="fill:#0092cf;fill-rule:nonzero;"></path> <path d="M176.485,317.122c0,-1.629 1.074,-3.012 2.551,-3.479l-12.214,-25.941c-0.162,-0.017 -0.352,-0.045 -0.506,-0.081l-14.986,35.042l0,4.284c6.459,-2.03 15.784,-5.079 25.511,-8.197c-0.246,-0.491 -0.356,-1.043 -0.356,-1.628" style="fill:#0092cf;fill-rule:nonzero;"></path> <path d="M149.364,327.464c0.021,0.041 0.05,0.083 0.069,0.124c0.308,-0.1 0.974,-0.205 0.974,-0.311l0,-2.216l-1.043,2.403Z" style="fill:#0092cf;fill-rule:nonzero;"></path> <path d="M189.204,285.754c-1.082,0.007 -2.396,0.01 -3.947,0.01c-4.809,0 -10.824,-0.029 -14.82,-0.053c-0.418,0.824 -1.138,1.468 -2.015,1.787l12.251,26.018c0.107,0.016 0.212,0.035 0.315,0.06l9.78,-25.597c-0.776,-0.506 -1.347,-1.297 -1.564,-2.225" style="fill:#0092cf;fill-rule:nonzero;"></path> <path d="M267.257,462.226l3.128,-35.499l-47.026,27.138l-0.167,-0.122l-15.638,-9.021l-30.249,40.7l6.464,3.742l75.64,-18.734c0.019,-4.405 3.488,-7.987 7.848,-8.204" style="fill:#003d71;fill-rule:nonzero;"></path> <path d="M160.803,417.754c-2.887,4.454 -5.623,8.667 -8.052,12.399c-0.93,1.43 -1.809,2.78 -2.64,4.056c-0.94,1.442 -1.815,2.785 -2.608,3.999c-0.825,1.265 -1.563,2.397 -2.204,3.379c0.681,1.2 1.074,2.583 1.074,4.062c0,0.972 -0.177,1.901 -0.486,2.769l14.085,26.971l13.817,7.998l30.246,-40.695l-43.232,-24.938Z" style="fill:#003d71;fill-rule:nonzero;"></path> <path d="M271.239,463.023c0.637,0.305 1.231,0.684 1.765,1.134l59.55,-67.692c-0.252,-0.239 -0.493,-0.489 -0.717,-0.752l-23.162,8.917l-34.021,19.635l-3.415,38.758Z" style="fill:#003d71;fill-rule:nonzero;"></path> <path d="M339.148,399.1c-1.079,0 -2.113,-0.187 -3.083,-0.516l-60.667,68.963c0.277,0.733 0.453,1.514 0.511,2.33l16.128,2.292l65.147,-37.708l-14.962,-35.874c-0.967,0.328 -1.998,0.513 -3.074,0.513" style="fill:#003d71;fill-rule:nonzero;"></path> <path d="M396.779,353.626l0.049,0.123l-42.009,24.249l-6.953,7.492c0.565,1.222 0.891,2.575 0.891,4.007c0,0.195 -0.017,0.386 -0.027,0.578l58.18,15.399c0.9,-1.964 2.543,-3.508 4.572,-4.282c-0.004,-0.043 -0.009,-0.08 -0.013,-0.123c-0.019,-0.157 -0.038,-0.319 -0.057,-0.48c-0.065,-0.561 -0.134,-1.141 -0.204,-1.745c-0.006,-0.05 -0.012,-0.102 -0.018,-0.152c-1.809,-15.465 -5.167,-44.324 -7.203,-61.839c-0.402,0.052 -0.83,0.087 -1.246,0.087c-2.248,0 -5.04,-0.789 -5.962,-2.088l0,18.774Z" style="fill:#003d71;fill-rule:nonzero;"></path> <path d="M401.632,317.801l-4.854,-34.69l0,36.693c0.923,-1.079 3.034,-1.796 4.854,-2.003" style="fill:#003d71;fill-rule:nonzero;"></path> <path d="M129.843,445.649c0,-4.044 2.912,-7.403 6.753,-8.113l-22.811,-46.903l-0.994,-0.574c-0.73,0.279 -1.489,0.498 -2.292,0.59l-15.203,47.304l29.732,17.209l6.251,-4.863c-0.905,-1.325 -1.436,-2.925 -1.436,-4.65" style="fill:#003d71;fill-rule:nonzero;"></path> <path d="M141.332,438.043c0.38,0.163 0.741,0.359 1.089,0.571c1.784,-2.73 3.581,-5.481 5.385,-8.249c3.177,-4.877 6.367,-9.784 9.505,-14.625l-37.288,-21.508l21.309,43.811Z" style="fill:#003d71;fill-rule:nonzero;"></path> <path d="M138.108,453.907c-1.346,0 -2.614,-0.327 -3.738,-0.899l-5.574,4.336l24.507,14.185l-10.063,-19.413c-1.41,1.119 -3.191,1.791 -5.132,1.791" style="fill:#003d71;fill-rule:nonzero;"></path> <path d="M271.787,477.617c0.513,1.823 1.019,3.618 1.519,5.395l13.081,-7.572l-11.182,-1.589c-0.717,1.586 -1.919,2.903 -3.418,3.766" style="fill:#003d71;fill-rule:nonzero;"></path> <path d="M345.719,396.486l14.988,35.936l41.5,-24.022l-54.556,-14.439c-0.501,0.948 -1.157,1.798 -1.932,2.525" style="fill:#003d71;fill-rule:nonzero;"></path> <path d="M101.08,123.496l-3.631,-55.912l-24.534,14.201l26.061,42.924l2.104,-1.213Z" style="fill:#003d71;fill-rule:nonzero;"></path> <path d="M112.117,117.132l26.208,-73.209l-36.976,21.404l3.631,55.92l7.137,-4.115Z" style="fill:#003d71;fill-rule:nonzero;"></path> <path d="M396.779,153.158l0,82.518l20.751,-128.413l-8.489,-4.919l-35.485,37.395l23.223,13.419Z" style="fill:#003d71;fill-rule:nonzero;"></path> <path d="M20.576,244.783c0.188,0.748 0.249,1.527 0.249,2.334c0,1.585 -0.318,3.076 -1,4.395l30.003,23.355l0,-52.928l-29.252,22.844Z" style="fill:#003d71;fill-rule:nonzero;"></path> <path d="M284.948,88.555l15.529,-49.056l-14.768,-8.549l-51.273,28.436l50.512,29.169Z" style="fill:#003d71;fill-rule:nonzero;"></path> <path d="M333.524,116.607l-17.084,-67.867l-12.385,-7.169l-15.527,49.052l44.996,25.984Z" style="fill:#003d71;fill-rule:nonzero;"></path> <path d="M230.132,5.777c-0.322,0 -0.637,-0.017 -0.951,-0.047l-21.252,56.151l15.544,-8.963l-0.025,0.123l6.912,3.992l51.279,-28.438l-44.578,-25.803c-1.751,1.83 -4.201,2.985 -6.929,2.985" style="fill:#003d71;fill-rule:nonzero;"></path> <path d="M200.206,66.335l2.203,-1.271l22.927,-60.58c-1.772,-1.025 -3.189,-2.595 -4.014,-4.484l-11.267,2.405l-43.121,24.959l29.555,39.825c1.139,-0.519 2.394,-0.818 3.717,-0.854" style="fill:#003d71;fill-rule:nonzero;"></path> <path d="M103.593,388.748c-22.966,7.361 -44.569,14.314 -59.989,19.285l48.117,27.851l14.674,-45.655c-1.022,-0.337 -1.964,-0.843 -2.802,-1.481" style="fill:#003d71;fill-rule:nonzero;"></path> <path d="M260.381,474.346l-71.584,17.727l34.426,19.927l37.501,-21.706l4.309,-12.011c-2.006,-0.677 -3.669,-2.097 -4.652,-3.937" style="fill:#003d71;fill-rule:nonzero;"></path> <path d="M400.005,249.217l46.602,-59.959l0,-32.339l-17.221,-42.803l-8.098,-4.687l-22.43,138.955c0.401,0.251 0.786,0.526 1.147,0.833" style="fill:#003d71;fill-rule:nonzero;"></path> <path d="M403.403,256.528c0,2.113 -0.696,4.062 -1.858,5.649l45.061,43.726l0,-110.069l-44.08,56.715c0.556,1.214 0.877,2.558 0.877,3.979" style="fill:#003d71;fill-rule:nonzero;"></path> <path d="M446.606,124.084l-11.55,-6.686l11.55,28.708l0,-22.022Z" style="fill:#003d71;fill-rule:nonzero;"></path> <path d="M95.486,126.721l-26.061,-42.916l-38.333,22.188l54.042,26.698l10.352,-5.97Z" style="fill:#003d71;fill-rule:nonzero;"></path> <path d="M1.554,247.117c0,-5.294 4.312,-9.601 9.61,-9.601c3.017,0 5.812,1.399 7.576,3.58l31.089,-24.281l0,-14.325l-47.977,-79.467l-1.851,1.061l0,135.586l4.782,-5.466c-1.928,-1.758 -3.229,-4.28 -3.229,-7.087" style="fill:#003d71;fill-rule:nonzero;"></path> <path d="M28.091,398.996l21.737,-50.702l0,-68.309l-32.595,-25.355c-1.641,1.303 -3.764,2.09 -6.019,2.09c-1.01,0 -1.928,-0.159 -2.845,-0.449l-8.369,9.469l0,59.776l21.646,69.73l6.445,3.75Z" style="fill:#003d71;fill-rule:nonzero;"></path> <path d="M49.828,153.65l0,-0.492l0.128,-0.124l31.026,-17.92l-54.059,-26.694l-21.647,12.582l44.552,73.68l0,-41.032Z" style="fill:#003d71;fill-rule:nonzero;"></path> <path d="M0.001,338.996l0,43.703l16.615,9.618l-16.615,-53.321Z" style="fill:#003d71;fill-rule:nonzero;"></path> <path d="M192.28,70.906c0.287,-0.464 0.61,-0.903 0.969,-1.311l-29.831,-40.195l-19.685,11.393l-26.214,73.223l74.761,-43.11Z" style="fill:#003d71;fill-rule:nonzero;"></path> <path d="M398.356,264.976l0.607,4.334l6.702,47.892l0.06,-0.069l0.135,1.123c3.782,1.293 6.513,4.871 6.513,9.08c0,3.412 -1.795,6.405 -4.486,8.109c2.145,18.441 5.863,50.384 7.605,65.265l2.053,-1.188c0.13,-0.256 0.256,-0.508 0.392,-0.777c0.27,-0.542 0.548,-1.105 0.837,-1.687c6.388,-12.893 17.682,-35.736 27.832,-58.946l0,-26.585l-48.078,-46.654c-0.059,0.033 -0.113,0.071 -0.172,0.103" style="fill:#003d71;fill-rule:nonzero;"></path> <path d="M423.863,395.864l22.743,-13.165l0,-34.997c-2.768,5.535 -5.331,11.481 -8.1,17.395c-6.772,14.465 -11.413,24.183 -14.643,30.767" style="fill:#003d71;fill-rule:nonzero;"></path> <path d="M369.988,137.663l35.472,-37.397l-84.148,-48.707l17.084,67.861l31.592,18.243Z" style="fill:#003d71;fill-rule:nonzero;"></path> <path d="M99.929,382.64l-48.604,-28.036l-19.813,46.429l7.388,4.276c16.337,-5.268 38.851,-12.519 61.911,-19.912c-0.428,-0.854 -0.723,-1.782 -0.882,-2.757" style="fill:#003d71;fill-rule:nonzero;"></path> </g> </g> </g> </g> </g> </svg> 